# xmcd
#
# Track frame offsets:
#	150
#	11433
#	28792
#	41123
#	51012
#	60760
#	73254
#	85842
#	96998
#	108007
#	119284
#	130367
#	144808
#	157937
#
# Disc length: 2263 seconds
#
# Revision: 0
# Processed by: cddbd v1.4PL0 Copyright (c) Steve Scherf et al.
# Submitted via: dBpowerAMP V4.0
#
DISCID=af08d50e
DTITLE=John Lee Hooker - I'm in the Mood [cd 3 of 3]
DYEAR=1999
DGENRE=Blues
TTITLE0=Boom Boom
TTITLE1=Blues Before Sunrise
TTITLE2=I Got a Letter this Morning
TTITLE3=Onions
TTITLE4=Big Soul
TTITLE5=Frisco Blues
TTITLE6=Take a Look at Yourself
TTITLE7=Good Rocking Mama
TTITLE8=Bottle Up and Go
TTITLE9=I Want to Ramble
TTITLE10=This is Hip
TTITLE11=Poor Me
TTITLE12=Birmingham Blues
TTITLE13=Love is a Burning Thing
EXTD=
EXTT0=
EXTT1=
EXTT2=
EXTT3=
EXTT4=
EXTT5=
EXTT6=
EXTT7=
EXTT8=
EXTT9=
EXTT10=
EXTT11=
EXTT12=
EXTT13=
PLAYORDER=
